<?xml version="1.0" standalone="no"?>
<!DOCTYPE svg PUBLIC "-//W3C//DTD SVG 20010904//EN"
 "http://www.w3.org/TR/2001/REC-SVG-20010904/DTD/svg10.dtd">
<svg version="1.0" xmlns="http://www.w3.org/2000/svg"
 width="640.000000pt" height="640.000000pt" viewBox="0 0 640.000000 640.000000"
 preserveAspectRatio="xMidYMid meet">

<g transform="translate(0.000000,640.000000) scale(0.100000,-0.100000)"
fill="#000000" stroke="none">
<path d="M1210 3285 l0 -695 85 0 85 0 0 285 c0 247 2 285 15 285 8 0 15 5 15
10 0 6 7 10 15 10 8 0 15 7 15 15 0 8 7 15 15 15 8 0 15 7 15 15 0 8 7 15 15
15 8 0 15 7 15 15 0 8 5 15 10 15 6 0 10 -7 10 -15 0 -8 7 -15 15 -15 8 0 15
-7 15 -15 0 -8 7 -15 15 -15 9 0 15 -9 15 -25 0 -16 6 -25 15 -25 10 0 15 -10
15 -30 0 -20 5 -30 15 -30 8 0 15 -7 15 -15 0 -8 7 -15 15 -15 10 0 15 -10 15
-30 0 -20 5 -30 15 -30 8 0 15 -7 15 -15 0 -8 5 -15 10 -15 6 0 10 -11 10 -25
0 -16 6 -25 15 -25 8 0 15 -7 15 -15 0 -8 7 -15 15 -15 10 0 15 -10 15 -30 0
-20 5 -30 15 -30 8 0 15 -7 15 -15 0 -8 7 -15 15 -15 9 0 15 -9 15 -25 0 -16
6 -25 15 -25 8 0 15 -7 15 -15 0 -8 5 -15 10 -15 6 0 10 -13 10 -30 0 -20 5
-30 15 -30 8 0 15 -7 15 -15 0 -8 7 -15 15 -15 9 0 15 -9 15 -25 l0 -25 100 0
100 0 0 25 c0 16 -6 25 -15 25 -8 0 -15 7 -15 15 0 8 -7 15 -15 15 -10 0 -15
10 -15 30 0 17 -4 30 -10 30 -5 0 -10 7 -10 15 0 8 -7 15 -15 15 -9 0 -15 9
-15 25 0 16 -6 25 -15 25 -8 0 -15 7 -15 15 0 8 -7 15 -15 15 -10 0 -15 10
-15 30 0 20 -5 30 -15 30 -8 0 -15 7 -15 15 0 8 -7 15 -15 15 -9 0 -15 9 -15
25 0 16 -6 25 -15 25 -8 0 -15 7 -15 15 0 8 -4 15 -10 15 -5 0 -10 14 -10 30
0 20 -5 30 -15 30 -8 0 -15 7 -15 15 0 8 -7 15 -15 15 -10 0 -15 10 -15 30 0
20 -5 30 -15 30 -8 0 -15 5 -15 10 0 6 -7 10 -15 10 -10 0 -15 10 -15 30 0 20
-5 30 -15 30 -8 0 -15 7 -15 15 0 8 -4 15 -10 15 -5 0 -10 14 -10 30 0 20 -5
30 -15 30 -8 0 -15 7 -15 15 0 8 -7 15 -15 15 -9 0 -15 9 -15 25 0 16 6 25 15
25 8 0 15 7 15 15 0 8 7 15 15 15 8 0 15 7 15 15 0 8 5 15 10 15 6 0 10 14 10
30 0 20 5 30 15 30 8 0 15 7 15 15 0 8 7 15 15 15 8 0 15 5 15 10 0 6 7 10 15
10 8 0 15 7 15 15 0 8 7 15 15 15 8 0 15 7 15 15 0 8 7 15 15 15 8 0 15 7 15
15 0 8 5 15 10 15 6 0 10 14 10 30 0 20 5 30 15 30 8 0 15 7 15 15 0 8 7 15
15 15 8 0 15 5 15 10 0 6 7 10 15 10 8 0 15 7 15 15 0 8 7 15 15 15 8 0 15 7
15 15 0 8 7 15 15 15 10 0 15 10 15 30 0 20 5 30 15 30 8 0 15 7 15 15 0 8 5
15 10 15 6 0 10 7 10 15 0 8 7 15 15 15 8 0 15 5 15 10 0 6 -40 10 -100 10
-60 0 -100 -4 -100 -10 0 -5 -7 -10 -15 -10 -8 0 -15 -7 -15 -15 0 -8 -4 -15
-10 -15 -5 0 -10 -7 -10 -15 0 -8 -7 -15 -15 -15 -8 0 -15 -7 -15 -15 0 -8 -7
-15 -15 -15 -10 0 -15 -10 -15 -30 0 -20 -5 -30 -15 -30 -8 0 -15 -7 -15 -15
0 -8 -7 -15 -15 -15 -8 0 -15 -4 -15 -10 0 -5 -7 -10 -15 -10 -8 0 -15 -7 -15
-15 0 -8 -4 -15 -10 -15 -5 0 -10 -13 -10 -30 0 -20 -5 -30 -15 -30 -8 0 -15
-7 -15 -15 0 -8 -7 -15 -15 -15 -8 0 -15 -7 -15 -15 0 -8 -7 -15 -15 -15 -8 0
-15 -7 -15 -15 0 -8 -7 -15 -15 -15 -9 0 -15 -9 -15 -25 0 -16 -6 -25 -15 -25
-8 0 -15 -7 -15 -15 0 -8 -7 -15 -15 -15 -8 0 -15 -7 -15 -15 0 -8 -4 -15 -10
-15 -5 0 -10 -7 -10 -15 0 -8 -7 -15 -15 -15 -10 0 -15 -10 -15 -30 0 -20 -5
-30 -15 -30 -8 0 -15 -4 -15 -10 0 -5 -7 -10 -15 -10 -10 0 -15 -10 -15 -30 0
-20 -5 -30 -15 -30 -13 0 -15 44 -15 340 l0 340 -85 0 -85 0 0 -695z"/>
<path d="M2670 3970 c0 -5 5 -10 10 -10 6 0 10 -20 10 -45 0 -33 4 -45 15 -45
11 0 15 -12 15 -45 0 -33 4 -45 15 -45 11 0 15 -11 15 -40 0 -29 4 -40 15 -40
11 0 15 -12 15 -45 0 -33 4 -45 15 -45 11 0 15 -11 15 -40 0 -29 4 -40 15 -40
11 0 15 -12 15 -45 0 -25 5 -45 10 -45 6 0 10 -18 10 -40 0 -29 4 -40 15 -40
12 0 15 -13 15 -60 0 -47 3 -60 15 -60 11 0 15 -11 15 -40 0 -29 4 -40 15 -40
11 0 15 -12 15 -45 0 -33 4 -45 15 -45 11 0 15 -12 15 -45 0 -33 4 -45 15 -45
11 0 15 -11 15 -40 0 -29 4 -40 15 -40 11 0 15 -12 15 -45 0 -25 5 -45 10 -45
6 0 10 -18 10 -40 0 -29 4 -40 15 -40 11 0 15 -12 15 -45 0 -33 4 -45 15 -45
9 0 15 -9 15 -25 l0 -25 100 0 100 0 0 40 c0 29 4 40 15 40 11 0 15 12 15 45
0 33 4 45 15 45 11 0 15 11 15 40 0 29 4 40 15 40 10 0 15 10 15 30 0 20 5 30
15 30 11 0 15 11 15 40 0 22 5 40 10 40 6 0 10 20 10 45 0 33 4 45 15 45 11 0
15 12 15 45 0 33 4 45 15 45 11 0 15 11 15 40 0 29 4 40 15 40 11 0 15 12 15
45 0 33 4 45 15 45 9 0 15 9 15 25 0 16 6 25 15 25 11 0 15 12 15 45 0 33 4
45 15 45 11 0 15 12 15 45 0 25 5 45 10 45 6 0 10 18 10 40 0 29 4 40 15 40
11 0 15 12 15 45 0 33 4 45 15 45 11 0 15 11 15 40 0 29 4 40 15 40 10 0 15
10 15 30 0 20 5 30 15 30 11 0 15 12 15 45 0 33 4 45 15 45 8 0 15 5 15 10 0
6 -40 10 -100 10 l-100 0 0 -40 c0 -29 -4 -40 -15 -40 -11 0 -15 -12 -15 -45
0 -33 -4 -45 -15 -45 -11 0 -15 -11 -15 -40 0 -29 -4 -40 -15 -40 -11 0 -15
-12 -15 -45 0 -33 -4 -45 -15 -45 -11 0 -15 -11 -15 -40 0 -29 -4 -40 -15 -40
-11 0 -15 -12 -15 -45 0 -25 -4 -45 -10 -45 -5 0 -10 -20 -10 -45 0 -33 -4
-45 -15 -45 -11 0 -15 -11 -15 -40 0 -29 -4 -40 -15 -40 -11 0 -15 -12 -15
-45 0 -33 -4 -45 -15 -45 -11 0 -15 -11 -15 -40 0 -29 -4 -40 -15 -40 -11 0
-15 -12 -15 -45 0 -33 -4 -45 -15 -45 -11 0 -15 -11 -15 -40 0 -29 -4 -40 -15
-40 -12 0 -15 -13 -15 -60 0 -33 -4 -60 -10 -60 -5 0 -10 -11 -10 -25 0 -16
-6 -25 -15 -25 -11 0 -15 11 -15 40 0 29 -4 40 -15 40 -11 0 -15 12 -15 45 0
33 -4 45 -15 45 -12 0 -15 13 -15 55 0 42 -3 55 -15 55 -11 0 -15 12 -15 45 0
33 -4 45 -15 45 -11 0 -15 11 -15 40 0 29 -4 40 -15 40 -12 0 -15 13 -15 60 0
33 -4 60 -10 60 -5 0 -10 18 -10 40 0 29 -4 40 -15 40 -11 0 -15 12 -15 45 0
33 -4 45 -15 45 -11 0 -15 11 -15 40 0 29 -4 40 -15 40 -11 0 -15 12 -15 45 0
33 -4 45 -15 45 -12 0 -15 13 -15 55 0 42 -3 55 -15 55 -11 0 -15 12 -15 45 0
33 -4 45 -15 45 -11 0 -15 11 -15 40 l0 40 -95 0 c-57 0 -95 -4 -95 -10z"/>
<path d="M4150 3970 c0 -5 7 -10 15 -10 11 0 15 -12 15 -45 0 -33 4 -45 15
-45 11 0 15 -12 15 -45 0 -25 5 -45 10 -45 6 0 10 -18 10 -40 0 -29 4 -40 15
-40 11 0 15 -12 15 -45 0 -33 4 -45 15 -45 11 0 15 -11 15 -40 0 -29 4 -40 15
-40 11 0 15 -12 15 -45 0 -33 4 -45 15 -45 11 0 15 -11 15 -40 0 -29 4 -40 15
-40 12 0 15 -13 15 -60 0 -47 3 -60 15 -60 11 0 15 -11 15 -40 0 -22 5 -40 10
-40 6 0 10 -20 10 -45 0 -33 4 -45 15 -45 11 0 15 -12 15 -45 0 -33 4 -45 15
-45 11 0 15 -11 15 -40 0 -29 4 -40 15 -40 11 0 15 -12 15 -45 0 -33 4 -45 15
-45 11 0 15 -11 15 -40 0 -29 4 -40 15 -40 11 0 15 -12 15 -45 0 -33 4 -45 15
-45 9 0 15 -9 15 -25 l0 -25 100 0 100 0 0 40 c0 22 5 40 10 40 6 0 10 20 10
45 0 33 4 45 15 45 11 0 15 11 15 40 0 29 4 40 15 40 10 0 15 10 15 30 0 20 5
30 15 30 11 0 15 11 15 40 0 29 4 40 15 40 11 0 15 12 15 45 0 33 4 45 15 45
11 0 15 12 15 45 0 25 5 45 10 45 6 0 10 18 10 40 0 29 4 40 15 40 11 0 15 12
15 46 0 37 3 45 15 40 11 -4 15 2 15 24 0 20 5 30 15 30 11 0 15 12 15 45 0
33 4 45 15 45 11 0 15 12 15 45 0 33 4 45 15 45 11 0 15 11 15 40 0 29 4 40
15 40 11 0 15 12 15 45 0 25 5 45 10 45 6 0 10 18 10 40 0 29 4 40 15 40 10 0
15 10 15 30 0 20 5 30 15 30 11 0 15 12 15 45 0 33 4 45 15 45 8 0 15 5 15 10
0 6 -40 10 -100 10 l-100 0 0 -40 c0 -29 -4 -40 -15 -40 -11 0 -15 -12 -15
-45 0 -33 -4 -45 -15 -45 -11 0 -15 -11 -15 -40 0 -29 -4 -40 -15 -40 -11 0
-15 -12 -15 -45 0 -25 -4 -45 -10 -45 -5 0 -10 -18 -10 -40 0 -29 -4 -40 -15
-40 -11 0 -15 -12 -15 -45 0 -33 -4 -45 -15 -45 -11 0 -15 -12 -15 -45 0 -33
-4 -45 -15 -45 -11 0 -15 -11 -15 -40 0 -29 -4 -40 -15 -40 -11 0 -15 -12 -15
-45 0 -33 -4 -45 -15 -45 -11 0 -15 -11 -15 -40 0 -22 -4 -40 -10 -40 -5 0
-10 -20 -10 -45 0 -33 -4 -45 -15 -45 -11 0 -15 -11 -15 -40 0 -29 -4 -40 -15
-40 -12 0 -15 -13 -15 -60 0 -47 -3 -60 -15 -60 -9 0 -15 -9 -15 -25 0 -16 -6
-25 -15 -25 -11 0 -15 11 -15 40 0 29 -4 40 -15 40 -11 0 -15 12 -15 45 0 33
-4 45 -15 45 -12 0 -15 13 -15 55 0 30 -4 55 -10 55 -5 0 -10 20 -10 45 0 33
-4 45 -15 45 -11 0 -15 11 -15 40 0 29 -4 40 -15 40 -12 0 -15 13 -15 60 0 47
-3 60 -15 60 -11 0 -15 11 -15 40 0 29 -4 40 -15 40 -11 0 -15 12 -15 45 0 33
-4 45 -15 45 -11 0 -15 11 -15 40 0 29 -4 40 -15 40 -11 0 -15 12 -15 51 0 31
-4 48 -10 44 -6 -4 -10 15 -10 49 0 43 -3 56 -15 56 -11 0 -15 12 -15 45 0 33
-4 45 -15 45 -11 0 -15 11 -15 40 l0 40 -100 0 c-60 0 -100 -4 -100 -10z"/>
<path d="M2410 2800 c0 -5 -13 -10 -30 -10 -27 0 -30 -3 -30 -30 0 -20 -5 -30
-15 -30 -11 0 -15 -12 -15 -45 0 -33 4 -45 15 -45 9 0 15 -9 15 -25 0 -21 5
-25 30 -25 20 0 30 -5 30 -15 0 -11 11 -15 40 -15 29 0 40 4 40 15 0 8 7 15
15 15 8 0 15 5 15 10 0 6 7 10 15 10 12 0 15 15 15 75 0 60 -3 75 -15 75 -8 0
-15 7 -15 15 0 8 -7 15 -15 15 -8 0 -15 5 -15 10 0 6 -18 10 -40 10 -22 0 -40
-4 -40 -10z"/>
<path d="M3920 2800 c0 -5 -13 -10 -30 -10 -27 0 -30 -3 -30 -30 0 -16 -4 -30
-10 -30 -5 0 -10 -20 -10 -45 0 -25 5 -45 10 -45 6 0 10 -11 10 -25 0 -21 5
-25 30 -25 20 0 30 -5 30 -15 0 -11 12 -15 45 -15 25 0 45 5 45 11 0 14 25 39
39 39 7 0 11 28 11 75 0 60 -3 75 -15 75 -8 0 -15 5 -15 11 0 22 -30 39 -69
39 -23 0 -41 -4 -41 -10z"/>
<path d="M5400 2800 c0 -5 -11 -10 -25 -10 -21 0 -25 -5 -25 -30 0 -20 -5 -30
-15 -30 -11 0 -15 -12 -15 -45 0 -33 4 -45 15 -45 9 0 15 -9 15 -25 0 -20 5
-25 25 -25 16 0 25 -6 25 -15 0 -11 12 -15 45 -15 33 0 45 4 45 15 0 8 7 15
15 15 8 0 15 5 15 10 0 6 7 10 15 10 12 0 15 15 15 75 0 60 -3 75 -15 75 -8 0
-15 7 -15 15 0 8 -7 15 -15 15 -8 0 -15 5 -15 10 0 6 -20 10 -45 10 -25 0 -45
-4 -45 -10z"/>
</g>
</svg>
